<svg width="64" height="64" viewBox="0 0 64 64" fill="none" xmlns="http://www.w3.org/2000/svg">
<path d="M22.666 5.33331V28M41.3327 5.33331V28" stroke="#202124" stroke-width="3" stroke-linecap="round"/>
<path d="M47.7765 5.36442H16.2235C13.7943 5.36442 10.5786 4.94463 8.91728 7.18938C8 8.42879 8 10.2222 8 13.8092C8 16.8673 8 18.3964 8.61851 19.6846C9.67485 21.8849 12.0367 22.8407 14.0611 23.8801L23.9502 28.9576C27.9003 30.9859 29.8755 32 32 32C34.1245 32 36.0997 30.9859 40.0499 28.9576L49.9389 23.8801C51.9632 22.8407 54.3251 21.8849 55.3816 19.6846C56 18.3964 56 16.8673 56 13.8092C56 10.2222 56 8.42879 55.0827 7.18938C53.4213 4.94463 50.2056 5.36442 47.7765 5.36442Z" stroke="#202124" stroke-width="3"/>
<path d="M28.0785 36.367C29.9948 35.2334 30.9529 34.6667 32.0006 34.6667C33.0484 34.6667 34.0065 35.2334 35.9228 36.367L38.5894 37.9446C40.5785 39.1211 41.5729 39.7094 42.1201 40.6934C42.6673 41.6771 42.6673 42.8771 42.6673 45.2774V48.056C42.6673 50.4563 42.6673 51.6563 42.1201 52.64C41.5729 53.624 40.5785 54.2123 38.5894 55.3888L35.9228 56.9664C34.0065 58.1 33.0484 58.6667 32.0006 58.6667C30.9529 58.6667 29.9948 58.1 28.0785 56.9664L25.4119 55.3888C23.4228 54.2123 22.4283 53.624 21.8812 52.64C21.334 51.6563 21.334 50.4563 21.334 48.056V45.2774C21.334 42.8771 21.334 41.6771 21.8812 40.6934C22.4283 39.7094 23.4228 39.1211 25.4119 37.9446L28.0785 36.367Z" stroke="#202124" stroke-width="3" stroke-linejoin="round"/>
</svg>
