<svg width="64" height="64" viewBox="0 0 64 64" fill="none" xmlns="http://www.w3.org/2000/svg">
<path d="M23.1355 24C13.8796 14.6666 28.0939 9.99998 32.0606 5.33331C36.0272 9.99998 50.2416 14.6666 40.9856 24H23.1355Z" stroke="#202124" stroke-width="3" stroke-linecap="round" stroke-linejoin="round"/>
<path d="M48.2383 32V29.3333C48.2383 26.8192 48.2383 25.5621 47.4572 24.781C46.6761 24 45.4191 24 42.9049 24H21.5716C19.0575 24 17.8004 24 17.0193 24.781C16.2383 25.5621 16.2383 26.8192 16.2383 29.3333V32" stroke="#202124" stroke-width="3" stroke-linecap="round" stroke-linejoin="round"/>
<path d="M45.1745 32H18.5078C14.7366 32 12.851 32 11.6794 33.1715C10.5078 34.3432 10.5078 36.2288 10.5078 40V50.6667C10.5078 54.4379 10.5078 56.3235 11.6794 57.4952C12.851 58.6667 14.7366 58.6667 18.5078 58.6667H45.1745C48.9457 58.6667 50.8313 58.6667 52.003 57.4952C53.1745 56.3235 53.1745 54.4379 53.1745 50.6667V40C53.1745 36.2288 53.1745 34.3432 52.003 33.1715C50.8313 32 48.9457 32 45.1745 32Z" stroke="#202124" stroke-width="3" stroke-linecap="round" stroke-linejoin="round"/>
<path d="M25.7913 58.6667V50.6667C25.7451 42.6667 32.4577 40 32.4577 40C32.4577 40 39.1702 42.6667 39.1241 50.6667V58.6667" stroke="#202124" stroke-width="3" stroke-linecap="round" stroke-linejoin="round"/>
</svg>
