<svg width="64" height="64" viewBox="0 0 64 64" fill="none" xmlns="http://www.w3.org/2000/svg">
<path d="M40.3505 6.66665C37.7239 5.80145 34.9169 5.33331 32.0007 5.33331C17.2731 5.33331 5.33398 17.2724 5.33398 32C5.33398 46.7275 17.2731 58.6667 32.0007 58.6667C46.7281 58.6667 58.6673 46.7275 58.6673 32C58.6673 29.2128 58.2396 26.5254 57.4465 24" stroke="#202124" stroke-width="3" stroke-linecap="round"/>
<path d="M45.3327 32C45.3327 39.3638 39.3631 45.3334 31.9994 45.3334C24.6356 45.3334 18.666 39.3638 18.666 32C18.666 24.6362 24.6356 18.6667 31.9994 18.6667" stroke="#202124" stroke-width="3" stroke-linecap="round" stroke-linejoin="round"/>
<path d="M52 12L32 32M52 12V5.33331M52 12H58.6667" stroke="#202124" stroke-width="3" stroke-linecap="round"/>
</svg>
